M48
; DRILL file {KiCad 8.0.1} date 2024-11-20T12:04:52-0500
; FORMAT={2:4/ absolute / inch / keep zeros}
; #@! TF.CreationDate,2024-11-20T12:04:52-05:00
; #@! TF.GenerationSoftware,Kicad,Pcbnew,8.0.1
; #@! TF.FileFunction,Plated,1,2,PTH
FMAT,2
INCH
; #@! TA.AperFunction,Plated,PTH,ComponentDrill
T1C0.0276
%
G90
G05
T1
X022244Y-011358
X022244Y-014646
X022244Y-018957
X022244Y-022244
X024803Y-010236
X024984Y-022638
X025803Y-010236
X025984Y-022638
X026772Y-016142
X026772Y-017126
X027756Y-010236
X028756Y-010236
X029114Y-013091
X029114Y-019488
X030315Y-021441
X030315Y-022441
X032283Y-009843
X032283Y-010827
X033071Y-013091
X033071Y-019488
M30
