%TF.GenerationSoftware,KiCad,Pcbnew,8.0.1*%
%TF.CreationDate,2024-11-13T12:18:26-05:00*%
%TF.ProjectId,batteryPCBa,62617474-6572-4795-9043-42612e6b6963,rev?*%
%TF.SameCoordinates,Original*%
%TF.FileFunction,Copper,L1,Top*%
%TF.FilePolarity,Positive*%
%FSLAX46Y46*%
G04 Gerber Fmt 4.6, Leading zero omitted, Abs format (unit mm)*
G04 Created by KiCad (PCBNEW 8.0.1) date 2024-11-13 12:18:26*
%MOMM*%
%LPD*%
G01*
G04 APERTURE LIST*
G04 Aperture macros list*
%AMRoundRect*
0 Rectangle with rounded corners*
0 $1 Rounding radius*
0 $2 $3 $4 $5 $6 $7 $8 $9 X,Y pos of 4 corners*
0 Add a 4 corners polygon primitive as box body*
4,1,4,$2,$3,$4,$5,$6,$7,$8,$9,$2,$3,0*
0 Add four circle primitives for the rounded corners*
1,1,$1+$1,$2,$3*
1,1,$1+$1,$4,$5*
1,1,$1+$1,$6,$7*
1,1,$1+$1,$8,$9*
0 Add four rect primitives between the rounded corners*
20,1,$1+$1,$2,$3,$4,$5,0*
20,1,$1+$1,$4,$5,$6,$7,0*
20,1,$1+$1,$6,$7,$8,$9,0*
20,1,$1+$1,$8,$9,$2,$3,0*%
G04 Aperture macros list end*
%ADD10C,0.187500*%
%TA.AperFunction,NonConductor*%
%ADD11C,0.187500*%
%TD*%
%TA.AperFunction,ComponentPad*%
%ADD12R,1.700000X1.700000*%
%TD*%
%TA.AperFunction,ComponentPad*%
%ADD13C,1.700000*%
%TD*%
%TA.AperFunction,ComponentPad*%
%ADD14RoundRect,0.250000X-0.600000X0.600000X-0.600000X-0.600000X0.600000X-0.600000X0.600000X0.600000X0*%
%TD*%
%TA.AperFunction,ComponentPad*%
%ADD15O,1.700000X1.700000*%
%TD*%
%TA.AperFunction,Conductor*%
%ADD16C,0.254000*%
%TD*%
G04 APERTURE END LIST*
D10*
D11*
X33480497Y-22020964D02*
X32980497Y-22020964D01*
X32980497Y-22806678D02*
X32980497Y-21306678D01*
X32980497Y-21306678D02*
X33694783Y-21306678D01*
X35051926Y-21378107D02*
X34909069Y-21306678D01*
X34909069Y-21306678D02*
X34694783Y-21306678D01*
X34694783Y-21306678D02*
X34480497Y-21378107D01*
X34480497Y-21378107D02*
X34337640Y-21520964D01*
X34337640Y-21520964D02*
X34266211Y-21663821D01*
X34266211Y-21663821D02*
X34194783Y-21949535D01*
X34194783Y-21949535D02*
X34194783Y-22163821D01*
X34194783Y-22163821D02*
X34266211Y-22449535D01*
X34266211Y-22449535D02*
X34337640Y-22592392D01*
X34337640Y-22592392D02*
X34480497Y-22735250D01*
X34480497Y-22735250D02*
X34694783Y-22806678D01*
X34694783Y-22806678D02*
X34837640Y-22806678D01*
X34837640Y-22806678D02*
X35051926Y-22735250D01*
X35051926Y-22735250D02*
X35123354Y-22663821D01*
X35123354Y-22663821D02*
X35123354Y-22163821D01*
X35123354Y-22163821D02*
X34837640Y-22163821D01*
X35694783Y-22378107D02*
X36409069Y-22378107D01*
X35551926Y-22806678D02*
X36051926Y-21306678D01*
X36051926Y-21306678D02*
X36551926Y-22806678D01*
X38551925Y-23306678D02*
X38551925Y-21163821D01*
X40694782Y-21449535D02*
X40766210Y-21378107D01*
X40766210Y-21378107D02*
X40909068Y-21306678D01*
X40909068Y-21306678D02*
X41266210Y-21306678D01*
X41266210Y-21306678D02*
X41409068Y-21378107D01*
X41409068Y-21378107D02*
X41480496Y-21449535D01*
X41480496Y-21449535D02*
X41551925Y-21592392D01*
X41551925Y-21592392D02*
X41551925Y-21735250D01*
X41551925Y-21735250D02*
X41480496Y-21949535D01*
X41480496Y-21949535D02*
X40623353Y-22806678D01*
X40623353Y-22806678D02*
X41551925Y-22806678D01*
X42480496Y-21306678D02*
X42623353Y-21306678D01*
X42623353Y-21306678D02*
X42766210Y-21378107D01*
X42766210Y-21378107D02*
X42837639Y-21449535D01*
X42837639Y-21449535D02*
X42909067Y-21592392D01*
X42909067Y-21592392D02*
X42980496Y-21878107D01*
X42980496Y-21878107D02*
X42980496Y-22235250D01*
X42980496Y-22235250D02*
X42909067Y-22520964D01*
X42909067Y-22520964D02*
X42837639Y-22663821D01*
X42837639Y-22663821D02*
X42766210Y-22735250D01*
X42766210Y-22735250D02*
X42623353Y-22806678D01*
X42623353Y-22806678D02*
X42480496Y-22806678D01*
X42480496Y-22806678D02*
X42337639Y-22735250D01*
X42337639Y-22735250D02*
X42266210Y-22663821D01*
X42266210Y-22663821D02*
X42194781Y-22520964D01*
X42194781Y-22520964D02*
X42123353Y-22235250D01*
X42123353Y-22235250D02*
X42123353Y-21878107D01*
X42123353Y-21878107D02*
X42194781Y-21592392D01*
X42194781Y-21592392D02*
X42266210Y-21449535D01*
X42266210Y-21449535D02*
X42337639Y-21378107D01*
X42337639Y-21378107D02*
X42480496Y-21306678D01*
X43551924Y-21449535D02*
X43623352Y-21378107D01*
X43623352Y-21378107D02*
X43766210Y-21306678D01*
X43766210Y-21306678D02*
X44123352Y-21306678D01*
X44123352Y-21306678D02*
X44266210Y-21378107D01*
X44266210Y-21378107D02*
X44337638Y-21449535D01*
X44337638Y-21449535D02*
X44409067Y-21592392D01*
X44409067Y-21592392D02*
X44409067Y-21735250D01*
X44409067Y-21735250D02*
X44337638Y-21949535D01*
X44337638Y-21949535D02*
X43480495Y-22806678D01*
X43480495Y-22806678D02*
X44409067Y-22806678D01*
X45694781Y-21806678D02*
X45694781Y-22806678D01*
X45337638Y-21235250D02*
X44980495Y-22306678D01*
X44980495Y-22306678D02*
X45909066Y-22306678D01*
D12*
%TO.P,U1,1,Out-*%
%TO.N,Net-(J3-Pin_1)*%
X73950000Y-33250000D03*
%TO.P,U1,2,Out+*%
%TO.N,Net-(J3-Pin_2)*%
X84000000Y-33250000D03*
%TO.P,U1,3,IN-*%
%TO.N,GND*%
X73950000Y-49500000D03*
%TO.P,U1,4,IN+*%
%TO.N,+7.4V*%
X84000000Y-49500000D03*
%TD*%
%TO.P,TP4056Mod2,1,Bat+*%
%TO.N,GND*%
X56500000Y-48150000D03*
%TO.P,TP4056Mod2,2,Bat-*%
%TO.N,Net-(J5-Pin_2)*%
X56500000Y-56500000D03*
%TD*%
%TO.P,J4,1,Pin_1*%
%TO.N,+7.4V*%
X73040000Y-26000000D03*
D13*
%TO.P,J4,2,Pin_2*%
%TO.N,GND*%
X70500000Y-26000000D03*
%TD*%
D12*
%TO.P,J5,1,Pin_1*%
%TO.N,GND*%
X66000000Y-57500000D03*
D13*
%TO.P,J5,2,Pin_2*%
%TO.N,Net-(J5-Pin_2)*%
X63460000Y-57500000D03*
%TD*%
D12*
%TO.P,J1,1,Pin_1*%
%TO.N,+7.4V*%
X77000000Y-54460000D03*
D13*
%TO.P,J1,2,Pin_2*%
%TO.N,GND*%
X77000000Y-57000000D03*
%TD*%
D12*
%TO.P,TP4056Mod1,1,Bat-*%
%TO.N,Net-(J2-Pin_2)*%
X56500000Y-28850000D03*
%TO.P,TP4056Mod1,2,Bat+*%
%TO.N,+7.4V*%
X56500000Y-37200000D03*
%TD*%
D14*
%TO.P,J6,1,Pin_1*%
%TO.N,Net-(J2-Pin_2)*%
X68000000Y-41000000D03*
D15*
%TO.P,J6,2,Pin_2*%
%TO.N,Net-(J5-Pin_2)*%
X68000000Y-43500000D03*
%TD*%
D12*
%TO.P,J2,1,Pin_1*%
%TO.N,+7.4V*%
X65540000Y-26000000D03*
D13*
%TO.P,J2,2,Pin_2*%
%TO.N,Net-(J2-Pin_2)*%
X63000000Y-26000000D03*
%TD*%
D14*
%TO.P,J3,1,Pin_1*%
%TO.N,Net-(J3-Pin_1)*%
X82000000Y-25000000D03*
D15*
%TO.P,J3,2,Pin_2*%
%TO.N,Net-(J3-Pin_2)*%
X82000000Y-27500000D03*
%TD*%
D16*
%TO.N,+7.4V*%
X84000000Y-52500000D02*
X84000000Y-49500000D01*
X73554000Y-46500000D02*
X81000000Y-46500000D01*
X72000000Y-44946000D02*
X73554000Y-46500000D01*
X81000000Y-46500000D02*
X84000000Y-49500000D01*
X72000000Y-27040000D02*
X72000000Y-44946000D01*
X73040000Y-26000000D02*
X72000000Y-27040000D01*
%TO.N,GND*%
X76686000Y-57000000D02*
X77000000Y-57000000D01*
X73950000Y-54264000D02*
X76686000Y-57000000D01*
X73950000Y-49500000D02*
X73950000Y-54264000D01*
X66000000Y-57500000D02*
X76500000Y-57500000D01*
%TO.N,+7.4V*%
X80960000Y-54460000D02*
X77000000Y-54460000D01*
X81000000Y-54500000D02*
X80960000Y-54460000D01*
X82000000Y-54500000D02*
X81000000Y-54500000D01*
X84000000Y-52500000D02*
X82000000Y-54500000D01*
X53000000Y-35500000D02*
X53000000Y-24000000D01*
X73040000Y-23540000D02*
X72000000Y-22500000D01*
X54500000Y-22500000D02*
X64040000Y-22500000D01*
X54700000Y-37200000D02*
X53000000Y-35500000D01*
X64040000Y-22500000D02*
X65540000Y-24000000D01*
X65540000Y-23960000D02*
X65540000Y-24000000D01*
X65540000Y-24000000D02*
X65540000Y-26000000D01*
X53000000Y-24000000D02*
X54500000Y-22500000D01*
X56500000Y-37200000D02*
X54700000Y-37200000D01*
X67000000Y-22500000D02*
X65540000Y-23960000D01*
%TO.N,GND*%
X73950000Y-48950000D02*
X73950000Y-49500000D01*
%TO.N,+7.4V*%
X56500000Y-37200000D02*
X56500000Y-36500000D01*
X72000000Y-22500000D02*
X67000000Y-22500000D01*
X73040000Y-26000000D02*
X73040000Y-23540000D01*
%TO.N,GND*%
X56500000Y-48150000D02*
X60500000Y-48150000D01*
X63150000Y-48150000D02*
X66000000Y-51000000D01*
X60500000Y-48150000D02*
X63150000Y-48150000D01*
X66000000Y-51000000D02*
X66000000Y-57500000D01*
X70500000Y-31000000D02*
X70500000Y-47750000D01*
X70100000Y-48150000D02*
X60500000Y-48150000D01*
X70500000Y-47750000D02*
X70100000Y-48150000D01*
X69500000Y-27000000D02*
X69500000Y-30000000D01*
X76500000Y-57500000D02*
X77000000Y-57000000D01*
X69500000Y-30000000D02*
X70500000Y-31000000D01*
X70500000Y-26000000D02*
X69500000Y-27000000D01*
%TO.N,Net-(J2-Pin_2)*%
X63000000Y-30500000D02*
X63000000Y-26000000D01*
X63000000Y-26000000D02*
X61000000Y-24000000D01*
X68000000Y-41000000D02*
X68000000Y-35500000D01*
X61000000Y-24000000D02*
X58000000Y-24000000D01*
X68000000Y-35500000D02*
X63000000Y-30500000D01*
X56500000Y-25500000D02*
X56500000Y-28850000D01*
X58000000Y-24000000D02*
X56500000Y-25500000D01*
%TO.N,Net-(J3-Pin_1)*%
X74250000Y-33250000D02*
X73950000Y-33250000D01*
X77000000Y-30500000D02*
X74250000Y-33250000D01*
X78500000Y-25000000D02*
X77000000Y-26500000D01*
X82000000Y-25000000D02*
X78500000Y-25000000D01*
X77000000Y-26500000D02*
X77000000Y-30500000D01*
%TO.N,Net-(J3-Pin_2)*%
X84000000Y-29500000D02*
X82000000Y-27500000D01*
X84000000Y-33250000D02*
X84000000Y-29500000D01*
%TO.N,Net-(J5-Pin_2)*%
X68000000Y-43500000D02*
X53000000Y-43500000D01*
X51000000Y-55000000D02*
X52500000Y-56500000D01*
X63460000Y-57500000D02*
X57500000Y-57500000D01*
X53000000Y-43500000D02*
X51000000Y-45500000D01*
X52500000Y-56500000D02*
X56500000Y-56500000D01*
X57500000Y-57500000D02*
X56500000Y-56500000D01*
X51000000Y-45500000D02*
X51000000Y-55000000D01*
%TD*%
M02*
