M48
; DRILL file {KiCad 8.0.1} date 2024-11-13T12:18:33-0500
; FORMAT={-:-/ absolute / metric / decimal}
; #@! TF.CreationDate,2024-11-13T12:18:33-05:00
; #@! TF.GenerationSoftware,Kicad,Pcbnew,8.0.1
; #@! TF.FileFunction,Plated,1,2,PTH
FMAT,2
METRIC
; #@! TA.AperFunction,Plated,PTH,ComponentDrill
T1C0.700
%
G90
G05
T1
X56.5Y-28.85
X56.5Y-37.2
X56.5Y-48.15
X56.5Y-56.5
X63.0Y-26.0
X63.46Y-57.5
X65.54Y-26.0
X66.0Y-57.5
X68.0Y-41.0
X68.0Y-43.5
X70.5Y-26.0
X73.04Y-26.0
X73.95Y-33.25
X73.95Y-49.5
X77.0Y-54.46
X77.0Y-57.0
X82.0Y-25.0
X82.0Y-27.5
X84.0Y-33.25
X84.0Y-49.5
M30
