M48
; DRILL file {KiCad 8.0.1} date 2024-11-21T16:43:24-0500
; FORMAT={2:4/ absolute / inch / keep zeros}
; #@! TF.CreationDate,2024-11-21T16:43:24-05:00
; #@! TF.GenerationSoftware,Kicad,Pcbnew,8.0.1
; #@! TF.FileFunction,Plated,1,2,PTH
FMAT,2
INCH
; #@! TA.AperFunction,Plated,PTH,ComponentDrill
T1C0.0300
; #@! TA.AperFunction,Plated,PTH,ComponentDrill
T2C0.0374
; #@! TA.AperFunction,Plated,PTH,ComponentDrill
T3C0.0394
; #@! TA.AperFunction,Plated,PTH,ComponentDrill
T4C0.0402
; #@! TA.AperFunction,Plated,PTH,ComponentDrill
T5C0.0512
%
G90
G05
T1
X019882Y-023622
X019882Y-029724
X020866Y-023622
X020866Y-029724
X021850Y-023622
X021850Y-029724
X022835Y-023622
X022835Y-029724
X023819Y-023622
X023819Y-029724
X024803Y-023622
X024803Y-029724
T2
X015610Y-041929
X015610Y-042913
X015610Y-043898
X015610Y-044882
X018504Y-041929
X018504Y-042913
X018504Y-043898
X018504Y-044882
X021339Y-041929
X021339Y-042913
X021339Y-043898
X021339Y-044882
X024213Y-041929
X024213Y-042913
X024213Y-043898
X024213Y-044882
X032677Y-010433
X033661Y-010433
X034646Y-010433
X035630Y-010433
T3
X024213Y-039173
X027756Y-016339
X032780Y-045276
X033780Y-045276
X034780Y-045276
X035780Y-045276
X036780Y-045276
X037780Y-045276
X038780Y-045276
X041488Y-043898
X042488Y-043898
X043488Y-043898
X044488Y-043898
X045079Y-018724
X045079Y-019724
T4
X030134Y-017711
X030134Y-018711
X030134Y-019711
X030134Y-020711
X030134Y-021711
X030134Y-022711
X030134Y-023711
X030134Y-024711
X030134Y-025711
X030134Y-026711
X030134Y-027711
X030134Y-028711
X030134Y-029711
X030134Y-030711
X030134Y-031711
X030134Y-032711
X030134Y-033711
X030134Y-034711
X030134Y-035711
X030134Y-036711
X030134Y-037711
X030134Y-038711
X039134Y-017711
X039134Y-018711
X039134Y-019711
X039134Y-020711
X039134Y-021711
X039134Y-022711
X039134Y-023711
X039134Y-024711
X039134Y-025711
X039134Y-026711
X039134Y-027711
X039134Y-028711
X039134Y-029711
X039134Y-030711
X039134Y-031711
X039134Y-032711
X039134Y-033711
X039134Y-034711
X039134Y-035711
X039134Y-036711
X039134Y-037711
X039134Y-038711
T5
X015748Y-033110
X015748Y-034488
X015906Y-021516
X015906Y-022894
X022343Y-009860
X023720Y-009860
X043504Y-031398
X043504Y-032776
X043701Y-039567
X043701Y-040945
M30
