%TF.GenerationSoftware,KiCad,Pcbnew,8.0.1*%
%TF.CreationDate,2024-11-21T16:43:07-05:00*%
%TF.ProjectId,SensorPCB,53656e73-6f72-4504-9342-2e6b69636164,rev?*%
%TF.SameCoordinates,Original*%
%TF.FileFunction,Copper,L1,Top*%
%TF.FilePolarity,Positive*%
%FSLAX46Y46*%
G04 Gerber Fmt 4.6, Leading zero omitted, Abs format (unit mm)*
G04 Created by KiCad (PCBNEW 8.0.1) date 2024-11-21 16:43:07*
%MOMM*%
%LPD*%
G01*
G04 APERTURE LIST*
G04 Aperture macros list*
%AMRoundRect*
0 Rectangle with rounded corners*
0 $1 Rounding radius*
0 $2 $3 $4 $5 $6 $7 $8 $9 X,Y pos of 4 corners*
0 Add a 4 corners polygon primitive as box body*
4,1,4,$2,$3,$4,$5,$6,$7,$8,$9,$2,$3,0*
0 Add four circle primitives for the rounded corners*
1,1,$1+$1,$2,$3*
1,1,$1+$1,$4,$5*
1,1,$1+$1,$6,$7*
1,1,$1+$1,$8,$9*
0 Add four rect primitives between the rounded corners*
20,1,$1+$1,$2,$3,$4,$5,0*
20,1,$1+$1,$4,$5,$6,$7,0*
20,1,$1+$1,$6,$7,$8,$9,0*
20,1,$1+$1,$8,$9,$2,$3,0*%
G04 Aperture macros list end*
%TA.AperFunction,ComponentPad*%
%ADD10RoundRect,0.250000X-0.725000X0.600000X-0.725000X-0.600000X0.725000X-0.600000X0.725000X0.600000X0*%
%TD*%
%TA.AperFunction,ComponentPad*%
%ADD11O,1.950000X1.700000*%
%TD*%
%TA.AperFunction,ComponentPad*%
%ADD12R,1.700000X1.700000*%
%TD*%
%TA.AperFunction,ComponentPad*%
%ADD13O,1.700000X1.700000*%
%TD*%
%TA.AperFunction,ComponentPad*%
%ADD14C,1.700000*%
%TD*%
%TA.AperFunction,ComponentPad*%
%ADD15R,1.530000X1.530000*%
%TD*%
%TA.AperFunction,ComponentPad*%
%ADD16C,1.530000*%
%TD*%
%TA.AperFunction,ComponentPad*%
%ADD17R,2.600000X2.600000*%
%TD*%
%TA.AperFunction,ComponentPad*%
%ADD18C,2.600000*%
%TD*%
%TA.AperFunction,ComponentPad*%
%ADD19RoundRect,0.250000X0.600000X0.725000X-0.600000X0.725000X-0.600000X-0.725000X0.600000X-0.725000X0*%
%TD*%
%TA.AperFunction,ComponentPad*%
%ADD20O,1.700000X1.950000*%
%TD*%
%TA.AperFunction,Conductor*%
%ADD21C,0.500000*%
%TD*%
%TA.AperFunction,Profile*%
%ADD22C,0.499999*%
%TD*%
G04 APERTURE END LIST*
D10*
%TO.P,J5,1,Pin_1*%
%TO.N,/SDA*%
X39650000Y-106500000D03*
D11*
%TO.P,J5,2,Pin_2*%
%TO.N,/SCL*%
X39650000Y-109000000D03*
%TO.P,J5,3,Pin_3*%
%TO.N,GND*%
X39650000Y-111500000D03*
%TO.P,J5,4,Pin_4*%
%TO.N,/JUMP*%
X39650000Y-114000000D03*
%TD*%
D10*
%TO.P,J4,1,Pin_1*%
%TO.N,/SDA*%
X47000000Y-106500000D03*
D11*
%TO.P,J4,2,Pin_2*%
%TO.N,/SCL*%
X47000000Y-109000000D03*
%TO.P,J4,3,Pin_3*%
%TO.N,GND*%
X47000000Y-111500000D03*
%TO.P,J4,4,Pin_4*%
%TO.N,/JUMP*%
X47000000Y-114000000D03*
%TD*%
D10*
%TO.P,J3,1,Pin_1*%
%TO.N,/SDA*%
X54200000Y-106500000D03*
D11*
%TO.P,J3,2,Pin_2*%
%TO.N,/SCL*%
X54200000Y-109000000D03*
%TO.P,J3,3,Pin_3*%
%TO.N,GND*%
X54200000Y-111500000D03*
%TO.P,J3,4,Pin_4*%
%TO.N,/JUMP*%
X54200000Y-114000000D03*
%TD*%
D10*
%TO.P,J2,1,Pin_1*%
%TO.N,/SDA*%
X61500000Y-106500000D03*
D11*
%TO.P,J2,2,Pin_2*%
%TO.N,/SCL*%
X61500000Y-109000000D03*
%TO.P,J2,3,Pin_3*%
%TO.N,GND*%
X61500000Y-111500000D03*
%TO.P,J2,4,Pin_4*%
%TO.N,/JUMP*%
X61500000Y-114000000D03*
%TD*%
D12*
%TO.P,J15,1,Pin_1*%
%TO.N,/JUMP*%
X61500000Y-99500000D03*
%TD*%
%TO.P,J14,1,Pin_1*%
%TO.N,VCC*%
X70500000Y-41500000D03*
%TD*%
D13*
%TO.P,J8,7,Pin_7*%
%TO.N,unconnected-(J8-Pin_7-Pad7)*%
X98500000Y-115000000D03*
%TO.P,J8,6,Pin_6*%
%TO.N,/Dig2*%
X95960000Y-115000000D03*
%TO.P,J8,5,Pin_5*%
%TO.N,/An5*%
X93420000Y-115000000D03*
%TO.P,J8,4,Pin_4*%
%TO.N,/An4*%
X90880000Y-115000000D03*
%TO.P,J8,3,Pin_3*%
%TO.N,/An3*%
X88340000Y-115000000D03*
%TO.P,J8,2,Pin_2*%
%TO.N,/An2*%
X85800000Y-115000000D03*
D12*
%TO.P,J8,1,Pin_1*%
%TO.N,/An1*%
X83260000Y-115000000D03*
%TD*%
D14*
%TO.P,U2,1,EEP*%
%TO.N,/EEP*%
X50500000Y-75500000D03*
%TO.P,U2,2,OUT1*%
%TO.N,Net-(J10-Pin_1)*%
X53000000Y-75500000D03*
%TO.P,U2,3,OUT2*%
%TO.N,Net-(J10-Pin_2)*%
X55500000Y-75500000D03*
%TO.P,U2,4,OUT3*%
%TO.N,Net-(J11-Pin_1)*%
X58000000Y-75500000D03*
%TO.P,U2,5,OUT4*%
%TO.N,Net-(J11-Pin_2)*%
X60500000Y-75500000D03*
%TO.P,U2,6,ULT*%
%TO.N,/ULT*%
X63000000Y-75500000D03*
%TO.P,U2,7,IN1*%
%TO.N,/MotA*%
X50500000Y-60000000D03*
%TO.P,U2,8,IN2*%
%TO.N,/MotB*%
X53000000Y-60000000D03*
%TO.P,U2,9,GND*%
%TO.N,GND*%
X55500000Y-60000000D03*
%TO.P,U2,10,VCC*%
%TO.N,+7.5V*%
X58000000Y-60000000D03*
%TO.P,U2,11,IN3*%
%TO.N,/MotC*%
X60500000Y-60000000D03*
%TO.P,U2,12,IN4*%
%TO.N,/MotD*%
X63000000Y-60000000D03*
%TD*%
D15*
%TO.P,U1,J1_1,3V3*%
%TO.N,VCC*%
X76540500Y-44985000D03*
D16*
%TO.P,U1,J1_2,3V3*%
X76540500Y-47525000D03*
%TO.P,U1,J1_3,RST*%
%TO.N,unconnected-(U1-RST-PadJ1_3)*%
X76540500Y-50065000D03*
%TO.P,U1,J1_4,GPIO4*%
%TO.N,/Volt*%
X76540500Y-52605000D03*
%TO.P,U1,J1_5,GPIO5*%
%TO.N,/Curr*%
X76540500Y-55145000D03*
%TO.P,U1,J1_6,GPIO6*%
%TO.N,/An5*%
X76540500Y-57685000D03*
%TO.P,U1,J1_7,GPIO7*%
%TO.N,/An4*%
X76540500Y-60225000D03*
%TO.P,U1,J1_8,GPIO15*%
%TO.N,/MotD*%
X76540500Y-62765000D03*
%TO.P,U1,J1_9,GPIO16*%
%TO.N,/MotC*%
X76540500Y-65305000D03*
%TO.P,U1,J1_10,GPIO17*%
%TO.N,/MotB*%
X76540500Y-67845000D03*
%TO.P,U1,J1_11,GPIO18*%
%TO.N,/MotA*%
X76540500Y-70385000D03*
%TO.P,U1,J1_12,GPIO8*%
%TO.N,/An3*%
X76540500Y-72925000D03*
%TO.P,U1,J1_13,GPIO3*%
%TO.N,unconnected-(U1-GPIO3-PadJ1_13)*%
X76540500Y-75465000D03*
%TO.P,U1,J1_14,GPIO46*%
%TO.N,unconnected-(U1-GPIO46-PadJ1_14)*%
X76540500Y-78005000D03*
%TO.P,U1,J1_15,GPIO9*%
%TO.N,/An2*%
X76540500Y-80545000D03*
%TO.P,U1,J1_16,GPIO10*%
%TO.N,/NeoPixel*%
X76540500Y-83085000D03*
%TO.P,U1,J1_17,GPIO11*%
%TO.N,/EEP*%
X76540500Y-85625000D03*
%TO.P,U1,J1_18,GPIO12*%
%TO.N,/ULT*%
X76540500Y-88165000D03*
%TO.P,U1,J1_19,GPIO13*%
%TO.N,/SCL*%
X76540500Y-90705000D03*
%TO.P,U1,J1_20,GPIO14*%
%TO.N,/SDA*%
X76540500Y-93245000D03*
%TO.P,U1,J1_21,5V0*%
%TO.N,+5V*%
X76540500Y-95785000D03*
%TO.P,U1,J1_22,GND*%
%TO.N,GND*%
X76540500Y-98325000D03*
%TO.P,U1,J3_1,GND*%
X99400500Y-44985000D03*
%TO.P,U1,J3_2,U0TXD/GPIO43*%
%TO.N,Net-(J1-Pin_1)*%
X99400500Y-47525000D03*
%TO.P,U1,J3_3,U0RXD/GPIO44*%
%TO.N,Net-(J1-Pin_2)*%
X99400500Y-50065000D03*
%TO.P,U1,J3_4,GPIO1*%
%TO.N,unconnected-(U1-GPIO1-PadJ3_4)*%
X99400500Y-52605000D03*
%TO.P,U1,J3_5,GPIO2*%
%TO.N,unconnected-(U1-GPIO2-PadJ3_5)*%
X99400500Y-55145000D03*
%TO.P,U1,J3_6,MTMS/GPIO42*%
%TO.N,unconnected-(U1-MTMS{slash}GPIO42-PadJ3_6)*%
X99400500Y-57685000D03*
%TO.P,U1,J3_7,MTDI/GPIO41*%
%TO.N,unconnected-(U1-MTDI{slash}GPIO41-PadJ3_7)*%
X99400500Y-60225000D03*
%TO.P,U1,J3_8,MTDO/GPIO40*%
%TO.N,unconnected-(U1-MTDO{slash}GPIO40-PadJ3_8)*%
X99400500Y-62765000D03*
%TO.P,U1,J3_9,MTCK/GPIO39*%
%TO.N,unconnected-(U1-MTCK{slash}GPIO39-PadJ3_9)*%
X99400500Y-65305000D03*
%TO.P,U1,J3_10,GPIO38*%
%TO.N,unconnected-(U1-GPIO38-PadJ3_10)*%
X99400500Y-67845000D03*
%TO.P,U1,J3_11,GPIO37*%
%TO.N,unconnected-(U1-GPIO37-PadJ3_11)*%
X99400500Y-70385000D03*
%TO.P,U1,J3_12,GPIO36*%
%TO.N,unconnected-(U1-GPIO36-PadJ3_12)*%
X99400500Y-72925000D03*
%TO.P,U1,J3_13,GPIO35*%
%TO.N,/Dig2*%
X99400500Y-75465000D03*
%TO.P,U1,J3_14,GPIO0*%
%TO.N,unconnected-(U1-GPIO0-PadJ3_14)*%
X99400500Y-78005000D03*
%TO.P,U1,J3_15,GPIO45*%
%TO.N,unconnected-(U1-GPIO45-PadJ3_15)*%
X99400500Y-80545000D03*
%TO.P,U1,J3_16,GPIO48*%
%TO.N,unconnected-(U1-GPIO48-PadJ3_16)*%
X99400500Y-83085000D03*
%TO.P,U1,J3_17,GPIO47*%
%TO.N,unconnected-(U1-GPIO47-PadJ3_17)*%
X99400500Y-85625000D03*
%TO.P,U1,J3_18,GPIO21*%
%TO.N,unconnected-(U1-GPIO21-PadJ3_18)*%
X99400500Y-88165000D03*
%TO.P,U1,J3_19,USB_D+/GPIO20*%
%TO.N,unconnected-(U1-USB_D+{slash}GPIO20-PadJ3_19)*%
X99400500Y-90705000D03*
%TO.P,U1,J3_20,USB_D-/GPIO19*%
%TO.N,unconnected-(U1-USB_D-{slash}GPIO19-PadJ3_20)*%
X99400500Y-93245000D03*
%TO.P,U1,J3_21,GND*%
%TO.N,GND*%
X99400500Y-95785000D03*
%TO.P,U1,J3_22,GND*%
X99400500Y-98325000D03*
%TD*%
D12*
%TO.P,J13,1,Pin_1*%
%TO.N,+5V*%
X105380000Y-111500000D03*
D13*
%TO.P,J13,2,Pin_2*%
X107920000Y-111500000D03*
%TO.P,J13,3,Pin_3*%
%TO.N,GND*%
X110460000Y-111500000D03*
%TO.P,J13,4,Pin_4*%
X113000000Y-111500000D03*
%TD*%
D17*
%TO.P,J12,1,Pin_1*%
%TO.N,GND*%
X111000000Y-100500000D03*
D18*
%TO.P,J12,2,Pin_2*%
%TO.N,+5V*%
X111000000Y-104000000D03*
%TD*%
%TO.P,J11,2,Pin_2*%
%TO.N,Net-(J11-Pin_2)*%
X40000000Y-87600000D03*
D17*
%TO.P,J11,1,Pin_1*%
%TO.N,Net-(J11-Pin_1)*%
X40000000Y-84100000D03*
%TD*%
%TO.P,J10,1,Pin_1*%
%TO.N,Net-(J10-Pin_1)*%
X40400000Y-54650000D03*
D18*
%TO.P,J10,2,Pin_2*%
%TO.N,Net-(J10-Pin_2)*%
X40400000Y-58150000D03*
%TD*%
D17*
%TO.P,J9,1,Pin_1*%
%TO.N,GND*%
X56750000Y-25045000D03*
D18*
%TO.P,J9,2,Pin_2*%
%TO.N,+7.5V*%
X60250000Y-25045000D03*
%TD*%
D19*
%TO.P,J7,1,Pin_1*%
%TO.N,/Curr*%
X90500000Y-26500000D03*
D20*
%TO.P,J7,2,Pin_2*%
%TO.N,/Volt*%
X88000000Y-26500000D03*
%TO.P,J7,3,Pin_3*%
%TO.N,GND*%
X85500000Y-26500000D03*
%TO.P,J7,4,Pin_4*%
%TO.N,VCC*%
X83000000Y-26500000D03*
%TD*%
D17*
%TO.P,J6,1,Pin_1*%
%TO.N,/NeoPixel*%
X110500000Y-83250000D03*
D18*
%TO.P,J6,2,Pin_2*%
%TO.N,GND*%
X110500000Y-79750000D03*
%TD*%
D12*
%TO.P,J1,1,Pin_1*%
%TO.N,Net-(J1-Pin_1)*%
X114500000Y-47560000D03*
D13*
%TO.P,J1,2,Pin_2*%
%TO.N,Net-(J1-Pin_2)*%
X114500000Y-50100000D03*
%TD*%
D21*
%TO.N,GND*%
X103000000Y-22500000D02*
X83506700Y-22500000D01*
X103000000Y-43500000D02*
X103000000Y-22500000D01*
X83506700Y-22500000D02*
X83500000Y-22493300D01*
X101515000Y-44985000D02*
X103000000Y-43500000D01*
X99400500Y-44985000D02*
X101515000Y-44985000D01*
X56750000Y-22493300D02*
X83500000Y-22493300D01*
X83500000Y-22493300D02*
X83720000Y-22493300D01*
%TO.N,/JUMP*%
X61500000Y-114000000D02*
X59273300Y-114000000D01*
X56426700Y-114000000D02*
X59273300Y-114000000D01*
X55313400Y-114000000D02*
X56426700Y-114000000D01*
X55313400Y-114000000D02*
X54200000Y-114000000D01*
X54200000Y-114000000D02*
X47000000Y-114000000D01*
X47000000Y-114000000D02*
X39650000Y-114000000D01*
X39650000Y-114000000D02*
X37423300Y-114000000D01*
X35902900Y-112479600D02*
X37423300Y-114000000D01*
X35902900Y-104612200D02*
X35902900Y-112479600D01*
X41015100Y-99500000D02*
X35902900Y-104612200D01*
X61500000Y-99500000D02*
X41015100Y-99500000D01*
%TO.N,/MotB*%
X53000000Y-60498200D02*
X53000000Y-60000000D01*
X60346800Y-67845000D02*
X53000000Y-60498200D01*
X76540500Y-67845000D02*
X60346800Y-67845000D01*
%TO.N,/EEP*%
X50500000Y-74981700D02*
X50500000Y-75500000D01*
X52085200Y-73396500D02*
X50500000Y-74981700D01*
X64000100Y-73396500D02*
X52085200Y-73396500D01*
X76228600Y-85625000D02*
X64000100Y-73396500D01*
X76540500Y-85625000D02*
X76228600Y-85625000D01*
%TO.N,/ULT*%
X75665000Y-88165000D02*
X63000000Y-75500000D01*
X76540500Y-88165000D02*
X75665000Y-88165000D01*
%TO.N,/MotC*%
X60500000Y-60476800D02*
X60500000Y-60000000D01*
X65328200Y-65305000D02*
X60500000Y-60476800D01*
X76540500Y-65305000D02*
X65328200Y-65305000D01*
%TO.N,/MotD*%
X65765000Y-62765000D02*
X63000000Y-60000000D01*
X76540500Y-62765000D02*
X65765000Y-62765000D01*
%TO.N,/MotA*%
X60393300Y-70385000D02*
X76540500Y-70385000D01*
X50500000Y-60491700D02*
X60393300Y-70385000D01*
X50500000Y-60000000D02*
X50500000Y-60491700D01*
%TO.N,+5V*%
X107920000Y-107080000D02*
X107920000Y-111500000D01*
X111000000Y-104000000D02*
X107920000Y-107080000D01*
X107920000Y-111500000D02*
X107481700Y-111500000D01*
X106430900Y-111500000D02*
X107481700Y-111500000D01*
X106430900Y-111500000D02*
X105380000Y-111500000D01*
X105380000Y-111500000D02*
X103278300Y-111500000D01*
X103278300Y-115331400D02*
X103278300Y-111500000D01*
X99998900Y-118610800D02*
X103278300Y-115331400D01*
X81254900Y-118610800D02*
X99998900Y-118610800D01*
X79347400Y-116703300D02*
X81254900Y-118610800D01*
X79347400Y-98274600D02*
X79347400Y-116703300D01*
X76857800Y-95785000D02*
X79347400Y-98274600D01*
X76540500Y-95785000D02*
X76857800Y-95785000D01*
%TO.N,Net-(J11-Pin_2)*%
X60500000Y-76023600D02*
X60500000Y-75500000D01*
X48923600Y-87600000D02*
X60500000Y-76023600D01*
X40000000Y-87600000D02*
X48923600Y-87600000D01*
%TO.N,Net-(J11-Pin_1)*%
X58000000Y-76031100D02*
X58000000Y-75500000D01*
X49931100Y-84100000D02*
X58000000Y-76031100D01*
X40000000Y-84100000D02*
X49931100Y-84100000D01*
%TO.N,Net-(J10-Pin_1)*%
X42951700Y-70954000D02*
X42951700Y-54650000D01*
X49619700Y-77622000D02*
X42951700Y-70954000D01*
X51369700Y-77622000D02*
X49619700Y-77622000D01*
X53000000Y-75991700D02*
X51369700Y-77622000D01*
X53000000Y-75500000D02*
X53000000Y-75991700D01*
X40400000Y-54650000D02*
X42951700Y-54650000D01*
%TO.N,Net-(J10-Pin_2)*%
X55500000Y-76027200D02*
X55500000Y-75500000D01*
X52403500Y-79123700D02*
X55500000Y-76027200D01*
X48997600Y-79123700D02*
X52403500Y-79123700D01*
X40400000Y-70526100D02*
X48997600Y-79123700D01*
X40400000Y-58150000D02*
X40400000Y-70526100D01*
%TO.N,+7.5V*%
X58000000Y-43467700D02*
X58000000Y-60000000D01*
X60250000Y-41217700D02*
X58000000Y-43467700D01*
X60250000Y-25045000D02*
X60250000Y-41217700D01*
%TO.N,/An4*%
X90880000Y-74186700D02*
X90880000Y-115000000D01*
X76918300Y-60225000D02*
X90880000Y-74186700D01*
X76540500Y-60225000D02*
X76918300Y-60225000D01*
%TO.N,/Dig2*%
X98993800Y-75465000D02*
X99400500Y-75465000D01*
X95960000Y-78498800D02*
X98993800Y-75465000D01*
X95960000Y-115000000D02*
X95960000Y-78498800D01*
%TO.N,/An3*%
X88340000Y-84346700D02*
X88340000Y-115000000D01*
X76918300Y-72925000D02*
X88340000Y-84346700D01*
X76540500Y-72925000D02*
X76918300Y-72925000D01*
%TO.N,/An5*%
X93420000Y-74210000D02*
X93420000Y-115000000D01*
X76895000Y-57685000D02*
X93420000Y-74210000D01*
X76540500Y-57685000D02*
X76895000Y-57685000D01*
%TO.N,/An2*%
X76854700Y-80545000D02*
X76540500Y-80545000D01*
X85800000Y-89490300D02*
X76854700Y-80545000D01*
X85800000Y-115000000D02*
X85800000Y-89490300D01*
%TO.N,/Volt*%
X76872600Y-52605000D02*
X76540500Y-52605000D01*
X88000000Y-41477600D02*
X76872600Y-52605000D01*
X88000000Y-26500000D02*
X88000000Y-41477600D01*
%TO.N,/Curr*%
X76872600Y-55145000D02*
X76540500Y-55145000D01*
X90500000Y-41517600D02*
X76872600Y-55145000D01*
X90500000Y-26500000D02*
X90500000Y-41517600D01*
%TO.N,/NeoPixel*%
X110500000Y-92118300D02*
X110500000Y-83250000D01*
X101025000Y-101593300D02*
X110500000Y-92118300D01*
X101025000Y-115460900D02*
X101025000Y-101593300D01*
X99376800Y-117109100D02*
X101025000Y-115460900D01*
X81877000Y-117109100D02*
X99376800Y-117109100D01*
X81139200Y-116371300D02*
X81877000Y-117109100D01*
X81139200Y-87293600D02*
X81139200Y-116371300D01*
X76930600Y-83085000D02*
X81139200Y-87293600D01*
X76540500Y-83085000D02*
X76930600Y-83085000D01*
%TO.N,/SCL*%
X55313400Y-109000000D02*
X56426700Y-109000000D01*
X55313400Y-109000000D02*
X54200000Y-109000000D01*
X54200000Y-109000000D02*
X47000000Y-109000000D01*
X47000000Y-109000000D02*
X39650000Y-109000000D01*
X59273300Y-109000000D02*
X56426700Y-109000000D01*
X60883900Y-109000000D02*
X59273300Y-109000000D01*
X61500000Y-109000000D02*
X60883900Y-109000000D01*
X37404600Y-108981300D02*
X37423300Y-109000000D01*
X37404600Y-105234300D02*
X37404600Y-108981300D01*
X38844100Y-103794800D02*
X37404600Y-105234300D01*
X61944000Y-103794800D02*
X38844100Y-103794800D01*
X75033800Y-90705000D02*
X61944000Y-103794800D01*
X76540500Y-90705000D02*
X75033800Y-90705000D01*
X39650000Y-109000000D02*
X37423300Y-109000000D01*
%TO.N,/SDA*%
X47000000Y-106500000D02*
X39650000Y-106500000D01*
X47000000Y-106500000D02*
X54200000Y-106500000D01*
X54200000Y-106500000D02*
X61500000Y-106500000D01*
X74755000Y-93245000D02*
X76540500Y-93245000D01*
X61500000Y-106500000D02*
X74755000Y-93245000D01*
%TO.N,GND*%
X55500000Y-28846700D02*
X55500000Y-60000000D01*
X56750000Y-27596700D02*
X55500000Y-28846700D01*
X113551700Y-108846600D02*
X113000000Y-109398300D01*
X113551700Y-100500000D02*
X113551700Y-108846600D01*
X113000000Y-111500000D02*
X113000000Y-110449100D01*
X113000000Y-110449100D02*
X113000000Y-109398300D01*
X112561700Y-110887400D02*
X112561700Y-111500000D01*
X113000000Y-110449100D02*
X112561700Y-110887400D01*
X110460000Y-111500000D02*
X112561700Y-111500000D01*
X111000000Y-100500000D02*
X112925900Y-100500000D01*
X113050200Y-100500000D02*
X113551700Y-100500000D01*
X112925900Y-100500000D02*
X113050200Y-100500000D01*
X99400500Y-98325000D02*
X99400500Y-95785000D01*
X56750000Y-25522200D02*
X56750000Y-27596700D01*
X56750000Y-25522200D02*
X56750000Y-25045000D01*
X83720000Y-22493300D02*
X85500000Y-24273300D01*
X56750000Y-25045000D02*
X56750000Y-22493300D01*
X61732900Y-111500000D02*
X63726700Y-111500000D01*
X61732900Y-111500000D02*
X61500000Y-111500000D01*
X61500000Y-111500000D02*
X56426700Y-111500000D01*
X55313400Y-111500000D02*
X56426700Y-111500000D01*
X55313400Y-111500000D02*
X54200000Y-111500000D01*
X54200000Y-111500000D02*
X47000000Y-111500000D01*
X47000000Y-111500000D02*
X39650000Y-111500000D01*
X110460000Y-111500000D02*
X110460000Y-113601700D01*
X85500000Y-26500000D02*
X85500000Y-24648600D01*
X85500000Y-24648600D02*
X85500000Y-24273800D01*
X63726700Y-111138800D02*
X76540500Y-98325000D01*
X63726700Y-111500000D02*
X63726700Y-111138800D01*
X103949200Y-120112500D02*
X110460000Y-113601700D01*
X80632800Y-120112500D02*
X103949200Y-120112500D01*
X76540500Y-116020200D02*
X80632800Y-120112500D01*
X76540500Y-98325000D02*
X76540500Y-116020200D01*
X109578400Y-79750000D02*
X110500000Y-79750000D01*
X103739200Y-85589200D02*
X109578400Y-79750000D01*
X103739200Y-94304100D02*
X103739200Y-85589200D01*
X99718300Y-98325000D02*
X103739200Y-94304100D01*
X99400500Y-98325000D02*
X99718300Y-98325000D01*
X110500000Y-79750000D02*
X111403500Y-79750000D01*
X113126900Y-100423300D02*
X113050200Y-100500000D01*
X113126900Y-81473400D02*
X113126900Y-100423300D01*
X111403500Y-79750000D02*
X113126900Y-81473400D01*
X115423400Y-44985000D02*
X113397700Y-44985000D01*
X116640500Y-46202100D02*
X115423400Y-44985000D01*
X116640500Y-74513000D02*
X116640500Y-46202100D01*
X111403500Y-79750000D02*
X116640500Y-74513000D01*
X113397700Y-44985000D02*
X112384800Y-44985000D01*
X85500000Y-24273800D02*
X85500000Y-24273500D01*
X112384800Y-44985000D02*
X111878400Y-44985000D01*
X85500000Y-24273500D02*
X85500000Y-24273400D01*
X85500000Y-24273400D02*
X85500000Y-24273300D01*
X111878400Y-44985000D02*
X111625200Y-44985000D01*
X111625200Y-44985000D02*
X111498600Y-44985000D01*
X111498600Y-44985000D02*
X111435300Y-44985000D01*
X111435300Y-44985000D02*
X111403600Y-44985000D01*
X111403600Y-44985000D02*
X111387800Y-44985000D01*
X111387800Y-44985000D02*
X111379900Y-44985000D01*
X111379900Y-44985000D02*
X111375900Y-44985000D01*
X111375900Y-44985000D02*
X111373900Y-44985000D01*
X111373900Y-44985000D02*
X111372900Y-44985000D01*
X111372900Y-44985000D02*
X111372400Y-44985000D01*
X111372400Y-44985000D02*
X111372200Y-44985000D01*
X111372200Y-44985000D02*
X111372100Y-44985000D01*
X111372100Y-44985000D02*
X111372000Y-44985000D01*
X111372000Y-44985000D02*
X99400500Y-44985000D01*
%TO.N,VCC*%
X80898300Y-38610500D02*
X76540500Y-42968300D01*
X80898300Y-26500000D02*
X80898300Y-38610500D01*
X83000000Y-26500000D02*
X80898300Y-26500000D01*
X76540500Y-47525000D02*
X76540500Y-44985000D01*
X76540500Y-44985000D02*
X76540500Y-43976600D01*
X76540500Y-43976600D02*
X76540500Y-42968300D01*
X75078300Y-43976600D02*
X72601700Y-41500000D01*
X76540500Y-43976600D02*
X75078300Y-43976600D01*
X70500000Y-41500000D02*
X72601700Y-41500000D01*
%TO.N,Net-(J1-Pin_1)*%
X112363300Y-47525000D02*
X99400500Y-47525000D01*
X112398300Y-47560000D02*
X112363300Y-47525000D01*
X114500000Y-47560000D02*
X112398300Y-47560000D01*
%TO.N,Net-(J1-Pin_2)*%
X99435500Y-50100000D02*
X99400500Y-50065000D01*
X114500000Y-50100000D02*
X99435500Y-50100000D01*
%TD*%
D22*
X33500000Y-20050000D02*
X122400000Y-20050000D01*
X122400000Y-121650000D01*
X33500000Y-121650000D01*
X33500000Y-20050000D01*
M02*
